<?xml version="1.0" encoding="UTF-8" standalone="no"?>
<!-- Generator: Adobe Illustrator 19.0.0, SVG Export Plug-In . SVG Version: 6.00 Build 0)  -->

<svg
   xmlns:dc="http://purl.org/dc/elements/1.1/"
   xmlns:cc="http://creativecommons.org/ns#"
   xmlns:rdf="http://www.w3.org/1999/02/22-rdf-syntax-ns#"
   xmlns:svg="http://www.w3.org/2000/svg"
   xmlns="http://www.w3.org/2000/svg"
   xmlns:sodipodi="http://sodipodi.sourceforge.net/DTD/sodipodi-0.dtd"
   xmlns:inkscape="http://www.inkscape.org/namespaces/inkscape"
   version="1.1"
   id="Capa_1"
   x="0px"
   y="0px"
   viewBox="0 0 47 47"
   style="enable-background:new 0 0 47 47;"
   xml:space="preserve"
   inkscape:version="0.91 r13725"
   sodipodi:docname="save-as.svg"
   inkscape:export-filename="/home/azzuwan/Projects/JavaFX/Jasonium/src/main/resources/icons/save-as.png"
   inkscape:export-xdpi="47.710289"
   inkscape:export-ydpi="47.710289"><metadata
     id="metadata57"><rdf:RDF><cc:Work
         rdf:about=""><dc:format>image/svg+xml</dc:format><dc:type
           rdf:resource="http://purl.org/dc/dcmitype/StillImage" /><dc:title /></cc:Work></rdf:RDF></metadata><defs
     id="defs55" /><sodipodi:namedview
     pagecolor="#ffffff"
     bordercolor="#666666"
     borderopacity="1"
     objecttolerance="10"
     gridtolerance="10"
     guidetolerance="10"
     inkscape:pageopacity="0"
     inkscape:pageshadow="2"
     inkscape:window-width="1920"
     inkscape:window-height="1052"
     id="namedview53"
     showgrid="false"
     inkscape:zoom="5.0212766"
     inkscape:cx="-8.6631357"
     inkscape:cy="23.101695"
     inkscape:window-x="0"
     inkscape:window-y="0"
     inkscape:window-maximized="1"
     inkscape:current-layer="Capa_1" /><polygon
     style="fill:#424A60;"
     points="46.5,8 46.5,47 0.5,47 0.5,0 38.5,0 "
     id="polygon3" /><rect
     x="7.5"
     y="26"
     style="fill:#E7ECED;"
     width="31"
     height="21"
     id="rect5" /><rect
     x="7.5"
     y="26"
     style="fill:#EBBA16;"
     width="31"
     height="12.037"
     id="rect7" /><rect
     x="9.5"
     style="fill:#C7CAC7;"
     width="26"
     height="16"
     id="rect9" /><g
     id="g11"><path
       style="fill:#FFFFFF;"
       d="M12.5,31h7c0.553,0,1-0.447,1-1s-0.447-1-1-1h-7c-0.553,0-1,0.447-1,1S11.947,31,12.5,31z"
       id="path13" /><path
       style="fill:#FFFFFF;"
       d="M22.5,33h-10c-0.553,0-1,0.447-1,1s0.447,1,1,1h10c0.553,0,1-0.447,1-1S23.053,33,22.5,33z"
       id="path15" /><path
       style="fill:#FFFFFF;"
       d="M26.21,33.29c-0.37-0.37-1.04-0.37-1.41,0c-0.19,0.189-0.3,0.439-0.3,0.71   c0,0.27,0.109,0.52,0.29,0.71C24.979,34.89,25.229,35,25.5,35c0.27,0,0.52-0.11,0.71-0.29c0.18-0.19,0.29-0.45,0.29-0.71   S26.39,33.479,26.21,33.29z"
       id="path17" /></g><rect
     x="27.5"
     y="4"
     style="fill:none;stroke:#424A60;stroke-width:2;stroke-linecap:round;stroke-miterlimit:10;"
     width="4"
     height="8"
     id="rect19" /><polygon
     style="fill:#E7ECED;"
     points="24.5,16 9.5,16 9.5,0 16.5,0 "
     id="polygon21" /><g
     id="g23" /><g
     id="g25" /><g
     id="g27" /><g
     id="g29" /><g
     id="g31" /><g
     id="g33" /><g
     id="g35" /><g
     id="g37" /><g
     id="g39" /><g
     id="g41" /><g
     id="g43" /><g
     id="g45" /><g
     id="g47" /><g
     id="g49" /><g
     id="g51" /><path
     style="fill:#b1d3ef"
     d="m 46.269928,45.452636 -6.797,-6.797 6.483,-3.241 -17.637,-6.498 6.499,17.637 3.241,-6.484 6.797,6.797 c 0.195,0.195 0.451,0.293 0.707,0.293 0.256,0 0.512,-0.098 0.707,-0.293 0.39,-0.391 0.39,-1.024 0,-1.414 z"
     id="path13-6"
     inkscape:connector-curvature="0" /></svg>